<svg xmlns="http://www.w3.org/2000/svg" xmlns:xlink="http://www.w3.org/1999/xlink" width="266" zoomAndPan="magnify" viewBox="0 0 199.5 224.249992" height="299" preserveAspectRatio="xMidYMid meet" version="1.0"><defs><clipPath id="ddc70344fb"><path d="M 71 120 L 198.917969 120 L 198.917969 200 L 71 200 Z M 71 120 " clip-rule="nonzero"/></clipPath><clipPath id="a18bee08c3"><path d="M 0.0820312 117 L 113 117 L 113 193 L 0.0820312 193 Z M 0.0820312 117 " clip-rule="nonzero"/></clipPath><clipPath id="090b05b2ff"><path d="M 110 41.203125 L 134 41.203125 L 134 65 L 110 65 Z M 110 41.203125 " clip-rule="nonzero"/></clipPath><clipPath id="d3b18d81e9"><path d="M 6.351562 114 L 171 114 L 171 168 L 6.351562 168 Z M 6.351562 114 " clip-rule="nonzero"/></clipPath><clipPath id="a189649480"><path d="M 6.351562 121 L 192.421875 121 L 192.421875 175.753906 L 6.351562 175.753906 Z M 6.351562 121 " clip-rule="nonzero"/></clipPath><clipPath id="ea05c615f7"><path d="M 37 21 L 93 21 L 93 64 L 37 64 Z M 37 21 " clip-rule="nonzero"/></clipPath><clipPath id="92b004bb10"><path d="M 56.6875 0 L 99.449219 30.152344 L 71.882812 69.253906 L 29.117188 39.101562 Z M 56.6875 0 " clip-rule="nonzero"/></clipPath><clipPath id="72014b2bbe"><path d="M 56.6875 0 L 99.449219 30.152344 L 71.882812 69.253906 L 29.117188 39.101562 Z M 56.6875 0 " clip-rule="nonzero"/></clipPath></defs><g clip-path="url(#ddc70344fb)"><path fill="#fc9e97" d="M 198.101562 164.90625 C 198.703125 155.710938 182.8125 147.753906 173.820312 147.136719 C 173.007812 147.078125 172.195312 147.085938 171.402344 147.152344 C 171.089844 138.925781 164.75 132.097656 156.542969 131.527344 C 154.09375 131.359375 151.738281 131.765625 149.601562 132.632812 C 144.804688 125.769531 137.152344 121.070312 128.277344 120.460938 C 114.378906 119.503906 102.136719 128.886719 98.738281 142.175781 C 96.574219 141.046875 94.160156 140.335938 91.582031 140.160156 C 81.414062 139.460938 72.613281 147.324219 71.925781 157.726562 C 71.242188 168.128906 78.929688 177.128906 89.105469 177.828125 C 90.289062 177.914062 91.457031 177.871094 92.589844 177.730469 C 93.277344 185.832031 99.652344 192.433594 107.828125 192.996094 C 110.859375 193.203125 113.757812 192.554688 116.289062 191.25 C 119.226562 195.976562 124.246094 199.253906 130.125 199.660156 C 138.003906 200.203125 145.023438 195.421875 147.828125 188.320312 C 150.222656 190.402344 153.269531 191.75 156.652344 191.984375 C 164.035156 192.488281 170.535156 187.523438 172.367188 180.472656 C 181.039062 180.671875 197.511719 173.851562 198.101562 164.90625 Z M 198.101562 164.90625 " fill-opacity="1" fill-rule="nonzero"/></g><g clip-path="url(#a18bee08c3)"><path fill="#fc9e97" d="M 112.21875 159.703125 C 112.792969 150.949219 106.316406 143.371094 97.757812 142.78125 C 96.980469 142.726562 96.214844 142.730469 95.460938 142.792969 C 95.167969 134.957031 89.125 128.457031 81.308594 127.917969 C 78.980469 127.757812 76.738281 128.144531 74.699219 128.96875 C 70.128906 122.433594 62.84375 117.960938 54.390625 117.378906 C 41.15625 116.46875 29.5 125.398438 26.261719 138.058594 C 24.203125 136.984375 21.90625 136.304688 19.453125 136.136719 C 9.769531 135.472656 1.390625 142.960938 0.738281 152.863281 C 0.0859375 162.769531 7.40625 171.335938 17.09375 172.003906 C 18.21875 172.082031 19.328125 172.046875 20.414062 171.910156 C 21.070312 179.625 27.136719 185.90625 34.921875 186.445312 C 37.8125 186.640625 40.570312 186.027344 42.980469 184.785156 C 45.773438 189.285156 50.554688 192.40625 56.152344 192.792969 C 63.648438 193.308594 70.335938 188.753906 73.007812 181.992188 C 75.289062 183.980469 78.191406 185.261719 81.410156 185.480469 C 88.433594 185.964844 94.628906 181.230469 96.371094 174.523438 C 104.636719 174.710938 111.65625 168.21875 112.21875 159.703125 Z M 112.21875 159.703125 " fill-opacity="1" fill-rule="nonzero"/></g><path fill="#fffac0" d="M 157.582031 197.429688 C 160.398438 187.574219 154.707031 177.203125 144.867188 174.257812 C 143.972656 173.988281 143.074219 173.796875 142.179688 173.664062 C 143.757812 164.632812 138.308594 155.601562 129.320312 152.914062 C 126.644531 152.113281 123.9375 151.960938 121.359375 152.363281 C 117.636719 143.683594 110.230469 136.644531 100.519531 133.738281 C 85.308594 129.191406 69.53125 136.308594 62.65625 149.914062 C 60.519531 148.136719 58 146.757812 55.179688 145.910156 C 44.050781 142.582031 32.445312 148.917969 29.257812 160.066406 C 26.070312 171.210938 32.511719 182.945312 43.640625 186.273438 C 44.933594 186.660156 46.238281 186.914062 47.535156 187.046875 C 46.410156 196.03125 51.949219 204.824219 60.894531 207.5 C 64.210938 208.496094 67.582031 208.519531 70.699219 207.738281 C 72.855469 213.621094 77.664062 218.453125 84.097656 220.378906 C 92.71875 222.953125 101.628906 219.523438 106.402344 212.507812 C 108.578125 215.378906 111.644531 217.613281 115.34375 218.71875 C 123.421875 221.136719 131.800781 217.371094 135.476562 210.164062 C 145.058594 212.570312 154.835938 207.007812 157.582031 197.429688 Z M 157.582031 197.429688 " fill-opacity="1" fill-rule="nonzero"/><path fill="#aee0e8" d="M 175.382812 188.027344 C 174.921875 180.847656 168.792969 175.402344 161.699219 175.871094 C 161.058594 175.914062 160.429688 176 159.8125 176.132812 C 158.730469 169.796875 153.078125 165.175781 146.597656 165.601562 C 144.667969 165.730469 142.867188 166.289062 141.28125 167.183594 C 136.832031 162.371094 130.367188 159.539062 123.367188 160 C 112.40625 160.714844 103.789062 169.261719 102.488281 179.902344 C 100.683594 179.253906 98.71875 178.960938 96.691406 179.09375 C 88.664062 179.617188 82.589844 186.628906 83.113281 194.746094 C 83.636719 202.867188 90.566406 209.027344 98.589844 208.5 C 99.523438 208.4375 100.4375 208.289062 101.308594 208.058594 C 102.671875 214.253906 108.324219 218.695312 114.78125 218.273438 C 117.175781 218.117188 119.371094 217.308594 121.21875 216.035156 C 124 219.378906 128.253906 221.390625 132.894531 221.085938 C 139.105469 220.683594 144.113281 216.238281 145.578125 210.457031 C 147.664062 211.816406 150.183594 212.539062 152.851562 212.367188 C 158.675781 211.984375 163.253906 207.457031 163.964844 201.8125 C 170.765625 201.066406 175.835938 195.011719 175.382812 188.027344 Z M 175.382812 188.027344 " fill-opacity="1" fill-rule="nonzero"/><path fill="#aee0e8" d="M 21.953125 179.863281 C 22.40625 171.890625 29.050781 165.800781 36.785156 166.261719 C 37.488281 166.308594 38.175781 166.398438 38.847656 166.546875 C 39.980469 159.503906 46.109375 154.335938 53.175781 154.761719 C 55.28125 154.886719 57.25 155.496094 58.976562 156.476562 C 63.792969 151.105469 70.820312 147.914062 78.460938 148.371094 C 90.417969 149.085938 99.867188 158.507812 101.359375 170.304688 C 103.324219 169.574219 105.460938 169.230469 107.679688 169.363281 C 116.429688 169.886719 123.105469 177.621094 122.589844 186.636719 C 122.074219 195.652344 114.5625 202.539062 105.8125 202.019531 C 104.789062 201.957031 103.800781 201.800781 102.847656 201.554688 C 101.40625 208.4375 95.273438 213.410156 88.238281 212.992188 C 85.625 212.835938 83.222656 211.957031 81.203125 210.554688 C 78.199219 214.292969 73.566406 216.558594 68.507812 216.253906 C 61.734375 215.847656 56.25 210.960938 54.605469 204.546875 C 52.34375 206.074219 49.601562 206.894531 46.695312 206.71875 C 40.347656 206.339844 35.324219 201.347656 34.503906 195.085938 C 27.082031 194.292969 21.511719 187.617188 21.953125 179.863281 Z M 21.953125 179.863281 " fill-opacity="1" fill-rule="nonzero"/><path fill="#f7f3ea" d="M 143.199219 122.007812 C 143.199219 122.007812 140.304688 118.480469 138.164062 118.300781 C 136.007812 118.121094 132.570312 117.40625 130.550781 119.359375 C 128.511719 121.308594 132.269531 126.890625 132.269531 126.890625 L 133.609375 127.207031 Z M 143.199219 122.007812 " fill-opacity="1" fill-rule="evenodd"/><path fill="#58373a" d="M 122.679688 50.953125 L 123.535156 63.445312 C 123.535156 63.445312 125.914062 66.535156 126.515625 66.835938 C 127.113281 67.152344 130.570312 66.773438 130.570312 66.773438 L 131.789062 64.066406 L 131.210938 61.253906 L 125.253906 52.210938 Z M 122.679688 50.953125 " fill-opacity="1" fill-rule="evenodd"/><g clip-path="url(#090b05b2ff)"><path fill="#3ad2d7" d="M 131.789062 64.105469 C 131.789062 64.105469 134.589844 58.765625 133.886719 55.058594 C 133.390625 52.507812 132.691406 49.9375 131.789062 48.761719 C 130.910156 47.585938 130.53125 47.066406 130.53125 47.066406 C 130.53125 47.066406 131.171875 45.792969 130.089844 44.257812 C 129.3125 43.164062 127.933594 43.003906 127.175781 43.144531 C 126.414062 43.28125 126.015625 43.382812 126.015625 43.382812 C 126.015625 43.382812 122.257812 41.269531 118.839844 41.570312 C 115.445312 41.867188 114.183594 42.40625 113.027344 43.003906 C 111.867188 43.601562 110.347656 45.195312 110.347656 45.195312 C 110.347656 45.195312 116.621094 48.664062 119.761719 51.332031 C 122.898438 53.980469 129.171875 61.273438 129.832031 62.351562 C 130.511719 63.425781 131.53125 64.78125 131.53125 64.78125 Z M 131.789062 64.105469 " fill-opacity="1" fill-rule="evenodd"/></g><path fill="#589ce4" d="M 123.515625 55.039062 C 123.515625 55.039062 113.90625 44.039062 106.410156 44.417969 C 104.09375 44.539062 100.835938 46.011719 100.957031 48.742188 C 101.136719 53.105469 104.671875 54.5 104.671875 54.5 L 114.484375 52.328125 L 121.859375 53.882812 Z M 123.515625 55.039062 " fill-opacity="1" fill-rule="evenodd"/><path fill="#ffbe97" d="M 127.375 77.632812 C 127.375 77.632812 126.113281 76.757812 125.816406 75.5 C 125.515625 74.246094 125.515625 72.8125 125.515625 72.8125 C 125.515625 72.8125 127.875 73.769531 129.632812 73.289062 C 131.410156 72.8125 135.007812 70.5 135.46875 67.96875 C 135.847656 65.917969 135.148438 64.820312 134.289062 64.203125 C 133.328125 63.527344 131.890625 63.207031 130.691406 63.425781 C 128.59375 63.804688 126.953125 65.796875 126.953125 65.796875 L 126.453125 62.46875 C 126.453125 62.46875 124.277344 61.136719 123.757812 58.824219 C 123.238281 56.511719 123.496094 55.019531 123.496094 55.019531 C 123.496094 55.019531 118.5625 51.210938 114.722656 50.972656 C 110.886719 50.734375 108.167969 51.730469 106.96875 52.367188 C 105.75 53.007812 104.632812 54.460938 104.632812 54.460938 L 103.953125 61.496094 C 103.953125 61.496094 105.050781 65.558594 106.269531 71.457031 C 107.492188 77.355469 109.027344 80.582031 109.027344 80.582031 L 108.667969 82.574219 C 108.667969 82.574219 110.808594 84.6875 111.148438 85.1875 C 111.507812 85.683594 116.042969 87.476562 118 86.300781 C 119.960938 85.105469 125.476562 80.445312 125.476562 80.445312 Z M 127.375 77.632812 " fill-opacity="1" fill-rule="evenodd"/><path fill="#58373a" d="M 114.203125 59.003906 C 114.203125 59.003906 115.464844 58.445312 116.164062 58.425781 C 116.960938 58.386719 117.742188 58.664062 118.203125 58.984375 C 118.640625 59.300781 119.199219 59.742188 119.199219 59.742188 C 119.199219 59.742188 119.019531 58.566406 118.601562 58.167969 C 118.179688 57.769531 117.5625 57.308594 116.601562 57.25 C 115.644531 57.191406 114.324219 57.550781 113.925781 57.828125 C 113.503906 58.125 113.707031 59.144531 114.203125 59.003906 Z M 114.203125 59.003906 " fill-opacity="1" fill-rule="evenodd"/><path fill="#58373a" d="M 104.492188 56.3125 C 104.953125 56.09375 105.652344 55.953125 106.390625 56.09375 C 107.351562 56.253906 108.550781 56.890625 108.867188 57.269531 C 109.1875 57.648438 108.769531 58.585938 108.328125 58.347656 C 108.328125 58.347656 107.210938 57.527344 106.550781 57.351562 C 105.792969 57.152344 105.03125 57.210938 104.53125 57.410156 C 104.511719 57.429688 104.394531 57.507812 104.394531 57.46875 C 104.394531 56.953125 104.414062 56.671875 104.492188 56.3125 Z M 104.492188 56.3125 " fill-opacity="1" fill-rule="evenodd"/><path fill="#58373a" d="M 114.964844 59.859375 C 114.445312 59.78125 113.886719 60.519531 113.707031 61.554688 C 113.523438 62.570312 113.804688 63.46875 114.304688 63.566406 C 114.824219 63.644531 115.382812 62.890625 115.5625 61.871094 C 115.761719 60.835938 115.484375 59.941406 114.964844 59.859375 Z M 114.964844 59.859375 " fill-opacity="1" fill-rule="evenodd"/><path fill="#58373a" d="M 106.230469 58.746094 C 105.710938 58.664062 105.152344 59.402344 104.972656 60.4375 C 104.792969 61.453125 105.070312 62.351562 105.570312 62.449219 C 106.089844 62.53125 106.652344 61.792969 106.832031 60.757812 C 107.03125 59.742188 106.75 58.824219 106.230469 58.746094 Z M 106.230469 58.746094 " fill-opacity="1" fill-rule="evenodd"/><path fill="#58373a" d="M 108.550781 72.8125 C 108.550781 72.8125 107.910156 71.558594 108.890625 71.199219 C 109.289062 71.058594 110.109375 71.15625 110.746094 70.800781 C 111.386719 70.441406 111.925781 69.585938 112.707031 69.164062 C 113.40625 68.785156 114.644531 68.828125 115.042969 69.464844 C 115.445312 70.121094 115.382812 71.039062 114.84375 71.695312 C 114.304688 72.355469 113.34375 73.070312 112.585938 73.410156 C 111.808594 73.769531 109.410156 74.503906 108.550781 72.8125 Z M 108.550781 72.8125 " fill-opacity="1" fill-rule="evenodd"/><path fill="#ffbe97" d="M 69.242188 68.886719 C 69.242188 68.886719 67.261719 67.09375 65.40625 65.917969 C 63.527344 64.722656 59.75 62.929688 58.832031 62.3125 C 57.910156 61.695312 55.890625 60.617188 55.332031 60.277344 C 54.773438 59.921875 53.394531 59.203125 52.753906 59.742188 C 52.09375 60.277344 51.375 61.554688 52.195312 62.371094 C 53.015625 63.207031 55.371094 64.921875 55.59375 65.0625 C 55.8125 65.199219 57.269531 65.976562 57.269531 65.976562 C 57.269531 65.976562 55.972656 66.078125 55.433594 66.375 C 54.914062 66.675781 53.734375 67.191406 53.234375 68.03125 C 52.734375 68.867188 52.457031 70.121094 52.59375 70.957031 C 52.734375 71.796875 52.753906 72.234375 53.355469 72.929688 C 53.972656 73.628906 54.09375 73.867188 54.8125 73.949219 C 55.554688 74.027344 57.03125 73.867188 57.03125 73.867188 C 57.03125 73.867188 57.453125 74.644531 58.011719 75.164062 C 58.570312 75.679688 59.828125 76.875 61.128906 77.097656 C 62.40625 77.316406 62.988281 77.535156 63.726562 77.074219 C 64.464844 76.617188 65.664062 76.140625 65.664062 76.140625 L 67.203125 76.101562 L 69.640625 72.8125 Z M 69.242188 68.886719 " fill-opacity="1" fill-rule="evenodd"/><path fill="#58373a" d="M 56.8125 71.855469 C 56.910156 71.65625 57.03125 71.535156 57.171875 71.417969 C 57.472656 71.199219 57.8125 71.15625 58.128906 71.136719 C 59.03125 71.078125 59.488281 71.636719 59.890625 72.074219 C 60.589844 72.871094 61.226562 73.109375 61.867188 73.109375 C 63.265625 73.128906 64.007812 72.710938 64.007812 72.710938 C 64.066406 72.671875 64.085938 72.59375 64.046875 72.53125 C 64.007812 72.472656 63.925781 72.453125 63.867188 72.492188 C 63.867188 72.492188 63.167969 72.890625 61.847656 72.871094 C 61.386719 72.871094 60.910156 72.710938 60.410156 72.273438 C 60.546875 72.15625 60.628906 71.996094 60.628906 71.777344 C 60.648438 71.515625 60.589844 71.179688 60.488281 70.757812 C 60.148438 69.425781 59.089844 68.726562 59.089844 68.726562 C 59.03125 68.6875 58.949219 68.707031 58.910156 68.765625 C 58.871094 68.828125 58.890625 68.90625 58.949219 68.945312 C 58.949219 68.945312 59.910156 69.585938 60.230469 70.820312 C 60.328125 71.199219 60.390625 71.515625 60.367188 71.757812 C 60.347656 71.914062 60.308594 72.035156 60.210938 72.09375 C 60.167969 72.035156 60.109375 71.996094 60.070312 71.933594 C 59.628906 71.417969 59.109375 70.820312 58.089844 70.898438 C 57.710938 70.917969 57.332031 70.980469 56.992188 71.238281 C 56.871094 71.335938 56.75 71.4375 56.652344 71.597656 C 56.511719 71.4375 56.292969 71.179688 56.132812 70.957031 C 55.914062 70.621094 55.351562 69.863281 55.632812 68.6875 C 55.992188 67.273438 57.25 67.132812 57.25 67.132812 C 57.332031 67.132812 57.371094 67.054688 57.371094 66.992188 C 57.371094 66.914062 57.292969 66.875 57.230469 66.875 C 57.230469 66.875 55.792969 67.011719 55.394531 68.628906 C 55.074219 69.902344 55.671875 70.738281 55.933594 71.097656 C 56.113281 71.378906 56.390625 71.695312 56.53125 71.835938 C 56.492188 71.914062 56.453125 71.996094 56.433594 72.074219 C 56.332031 72.332031 56.351562 72.613281 56.410156 72.871094 C 56.492188 73.230469 56.652344 73.527344 56.652344 73.527344 C 56.691406 73.589844 56.773438 73.609375 56.832031 73.570312 C 56.890625 73.527344 56.910156 73.449219 56.871094 73.390625 C 56.871094 73.390625 56.730469 73.128906 56.652344 72.8125 C 56.613281 72.613281 56.59375 72.375 56.671875 72.15625 C 56.730469 72.035156 56.773438 71.933594 56.8125 71.855469 Z M 61.667969 69.503906 C 61.726562 69.523438 61.808594 69.484375 61.828125 69.40625 C 61.847656 69.34375 61.808594 69.265625 61.726562 69.246094 C 61.726562 69.246094 61.289062 69.125 60.308594 68.289062 C 59.308594 67.433594 58.289062 66.335938 58.289062 66.335938 C 58.25 66.277344 58.152344 66.277344 58.109375 66.335938 C 58.050781 66.375 58.050781 66.476562 58.109375 66.515625 C 58.109375 66.515625 59.148438 67.613281 60.148438 68.488281 C 61.1875 69.386719 61.667969 69.503906 61.667969 69.503906 Z M 55.152344 67.414062 C 55.214844 67.390625 55.253906 67.3125 55.234375 67.253906 C 55.214844 67.191406 55.132812 67.152344 55.074219 67.171875 C 55.074219 67.171875 53.65625 67.589844 53.632812 69.761719 C 53.632812 71.417969 54.332031 72.15625 54.671875 72.59375 C 54.992188 73.03125 55.890625 73.550781 55.890625 73.550781 C 55.953125 73.589844 56.03125 73.570312 56.074219 73.507812 C 56.113281 73.449219 56.09375 73.371094 56.03125 73.328125 C 56.03125 73.328125 55.191406 72.851562 54.894531 72.433594 C 54.59375 72.015625 53.894531 71.316406 53.914062 69.761719 C 53.933594 67.8125 55.152344 67.414062 55.152344 67.414062 Z M 55.152344 67.414062 " fill-opacity="1" fill-rule="evenodd"/><path fill="#589ce4" d="M 127.015625 76.675781 C 123.675781 77.734375 122.65625 80.183594 120.417969 82.355469 C 118.203125 84.527344 115.421875 84.589844 112.367188 83.949219 C 109.308594 83.3125 109.050781 80.621094 109.050781 80.621094 L 104.074219 80.285156 C 104.074219 80.285156 100.753906 83.871094 100.097656 84.886719 C 99.4375 85.902344 102.734375 90.566406 102.734375 90.566406 L 107.410156 94.890625 C 107.410156 94.890625 113.046875 106.367188 113.105469 109.613281 C 113.164062 112.863281 118.859375 121.171875 121.839844 121.867188 C 124.816406 122.566406 129.253906 120.535156 129.253906 120.535156 C 129.253906 120.535156 131.132812 119.21875 132.570312 118.519531 C 134.007812 117.84375 138.183594 118.28125 138.183594 118.28125 C 138.183594 118.28125 138.644531 114.21875 138.605469 111.964844 C 138.585938 109.714844 138.066406 106.347656 138.066406 106.347656 C 138.066406 106.347656 140.242188 104.59375 142.820312 102.082031 C 145.417969 99.570312 145.320312 95.507812 145.199219 92.578125 C 145.078125 89.648438 142.203125 84.050781 137.804688 80.242188 C 133.390625 76.4375 127.015625 76.675781 127.015625 76.675781 Z M 79.113281 70.480469 C 79.113281 70.480469 78.515625 70.101562 76.414062 69.761719 C 74.316406 69.425781 73 69.363281 73 69.363281 C 73 69.363281 71.9375 68.648438 71.320312 68.449219 C 70.859375 68.289062 70.601562 68.1875 69.660156 68.089844 C 68.683594 67.96875 68.164062 68.25 68.164062 68.25 C 68.164062 68.25 68.460938 70.878906 68.242188 72.332031 C 68.003906 73.789062 66.824219 76.21875 66.824219 76.21875 C 66.824219 76.21875 67.324219 77.652344 68.0625 77.953125 C 68.800781 78.230469 70.222656 78.390625 70.421875 78.371094 C 70.621094 78.351562 70.441406 78.492188 72.878906 80.722656 C 75.335938 82.953125 76.796875 84.050781 78.015625 84.527344 C 79.234375 85.007812 80.453125 85.246094 80.453125 85.246094 L 81.050781 78.910156 L 81.09375 73.449219 Z M 79.113281 70.480469 " fill-opacity="1" fill-rule="evenodd"/><path fill="#58373a" d="M 75.398438 151.117188 L 78.054688 153.269531 C 78.054688 153.269531 82.511719 155.144531 82.710938 154.726562 C 82.910156 154.308594 87.984375 152.234375 88.503906 151.957031 C 89.046875 151.675781 89.945312 146.695312 89.945312 146.355469 C 89.964844 146.019531 87.207031 143.546875 86.628906 143.328125 C 86.046875 143.109375 79.59375 142.113281 79.59375 142.113281 L 75.15625 145.460938 Z M 75.398438 151.117188 " fill-opacity="1" fill-rule="evenodd"/><path fill="#58373a" d="M 112.6875 117.664062 C 112.6875 117.664062 114.882812 116.527344 117.660156 115.8125 C 118.722656 115.53125 119.878906 115.3125 121.039062 115.253906 C 125.15625 115.015625 126.753906 116.070312 127.992188 116.867188 C 129.253906 117.664062 130.492188 118.699219 130.652344 118.859375 C 130.8125 119 131.230469 119.398438 130.691406 119.875 C 130.691406 119.875 131.570312 120.652344 132.589844 121.710938 C 133.589844 122.765625 134.46875 123.621094 134.308594 124.777344 C 134.148438 125.933594 133.570312 127.25 133.570312 127.25 L 122.699219 132.746094 L 94.980469 120.292969 C 94.980469 120.292969 82.609375 113.261719 80.390625 108.957031 C 78.175781 104.652344 76.875 100.648438 76.957031 100.25 C 77.035156 99.851562 76.875 96.265625 76.875 96.265625 L 77.792969 94.609375 C 77.792969 94.609375 79.933594 92.597656 82.691406 91.523438 C 84.089844 90.984375 84.007812 91.839844 84.007812 91.839844 L 84.007812 92.976562 L 98.097656 108.058594 C 98.097656 108.058594 107.628906 115.132812 108.148438 115.234375 C 108.667969 115.332031 112.6875 117.664062 112.6875 117.664062 Z M 112.6875 117.664062 " fill-opacity="1" fill-rule="evenodd"/><path fill="#f7f3ea" d="M 107.371094 140.71875 C 107.371094 140.71875 108.828125 138.824219 107.871094 138.066406 C 106.929688 137.289062 105.691406 136.453125 105.691406 136.453125 L 102.175781 136.652344 L 96.957031 137.3125 C 96.957031 137.3125 92.441406 138.285156 90.144531 136.59375 C 87.828125 134.917969 87.425781 134.082031 86.648438 133.246094 C 85.867188 132.410156 82.191406 128.84375 82.269531 128.5625 C 82.351562 128.285156 80.074219 128.085938 80.074219 128.085938 L 75.015625 133.964844 L 71.058594 135.117188 L 66.0625 132.03125 C 66.0625 132.03125 59.410156 130.773438 58.75 130.914062 C 58.089844 131.054688 57.589844 134.859375 57.589844 134.859375 L 69.261719 142.332031 C 69.261719 142.332031 77.613281 149.265625 80.492188 150.582031 C 82.351562 151.417969 82.25 151.636719 86.628906 150.183594 C 92.863281 148.109375 107.371094 140.71875 107.371094 140.71875 Z M 107.371094 140.71875 " fill-opacity="1" fill-rule="evenodd"/><path fill="#589ce4" d="M 122.117188 133.902344 C 122.117188 133.902344 125.253906 128.5625 124.257812 124.71875 C 123.535156 121.988281 122.160156 120.15625 119.601562 119.179688 C 116.941406 118.164062 114.664062 118.441406 113.265625 119.277344 C 111.507812 120.335938 94.601562 132.507812 90.984375 133.464844 C 87.367188 134.421875 86.628906 134.640625 86.628906 134.640625 C 86.628906 134.640625 88.984375 137.089844 90.125 137.390625 C 92.222656 137.929688 96.597656 137.929688 98.21875 137.769531 C 99.835938 137.609375 101.613281 136.933594 103.992188 137.351562 C 106.03125 137.6875 107.191406 137.808594 107.269531 138.84375 C 107.351562 139.902344 107.351562 140.71875 107.351562 140.71875 Z M 122.117188 133.902344 " fill-opacity="1" fill-rule="evenodd"/><g clip-path="url(#d3b18d81e9)"><path fill="#f7f3ea" d="M 170.738281 129.621094 C 170.738281 129.621094 164.265625 123.042969 161.066406 120.453125 C 156.589844 116.828125 151.496094 114.914062 151.496094 114.914062 L 148.316406 116.609375 L 81.75 152.832031 C 81.75 152.832031 67.164062 138.464844 54.355469 132.707031 C 41.542969 126.949219 20.820312 121.808594 20.820312 121.808594 L 6.292969 121.808594 L 18.601562 129.621094 L 31.273438 135.597656 L 70.121094 153.070312 L 82.652344 160.761719 L 105.632812 167.65625 L 168.980469 141.375 Z M 170.738281 129.621094 " fill-opacity="1" fill-rule="evenodd"/></g><path fill="#58373a" d="M 150.636719 119.078125 C 150.695312 119.039062 150.714844 118.960938 150.695312 118.898438 C 150.65625 118.839844 150.574219 118.820312 150.515625 118.839844 L 96.417969 146.996094 C 96.359375 147.035156 96.339844 147.113281 96.359375 147.171875 C 96.398438 147.234375 96.480469 147.253906 96.539062 147.234375 Z M 154.371094 122.746094 C 154.433594 122.726562 154.472656 122.644531 154.433594 122.566406 C 154.410156 122.507812 154.332031 122.464844 154.25 122.507812 L 99.277344 146.996094 C 99.21875 147.035156 99.175781 147.09375 99.21875 147.171875 C 99.238281 147.234375 99.316406 147.273438 99.398438 147.234375 Z M 159.507812 126.472656 C 159.566406 126.453125 159.609375 126.371094 159.585938 126.3125 C 159.566406 126.253906 159.488281 126.210938 159.425781 126.230469 L 96.4375 149.066406 C 96.378906 149.085938 96.339844 149.167969 96.359375 149.226562 C 96.378906 149.285156 96.460938 149.324219 96.519531 149.304688 Z M 65.023438 147.234375 C 65.085938 147.273438 65.164062 147.253906 65.203125 147.195312 C 65.246094 147.132812 65.226562 147.054688 65.164062 147.015625 C 65.164062 147.015625 51.417969 138.109375 43.304688 134.761719 C 34.371094 131.074219 15.503906 123.742188 15.503906 123.742188 C 15.445312 123.722656 15.367188 123.742188 15.324219 123.820312 C 15.304688 123.882812 15.324219 123.960938 15.40625 123.980469 C 15.40625 123.980469 34.269531 131.3125 43.203125 134.980469 C 51.296875 138.347656 65.023438 147.234375 65.023438 147.234375 Z M 71.5 145.71875 C 71.558594 145.757812 71.640625 145.738281 71.679688 145.679688 C 71.71875 145.621094 71.699219 145.539062 71.640625 145.5 C 71.640625 145.5 58.089844 136.195312 49.957031 132.847656 C 41.023438 129.160156 22.601562 123.503906 22.601562 123.503906 C 22.539062 123.480469 22.460938 123.523438 22.441406 123.601562 C 22.421875 123.683594 22.460938 123.742188 22.539062 123.761719 C 22.539062 123.761719 40.945312 129.421875 49.859375 133.085938 C 57.972656 136.433594 71.5 145.71875 71.5 145.71875 Z M 67.984375 146 C 68.042969 146.039062 68.121094 146.019531 68.164062 145.957031 C 68.203125 145.898438 68.183594 145.820312 68.121094 145.777344 C 68.121094 145.777344 54.375 136.871094 46.261719 133.523438 C 37.328125 129.839844 18.984375 123.742188 18.984375 123.742188 C 18.921875 123.722656 18.84375 123.761719 18.824219 123.820312 C 18.804688 123.882812 18.84375 123.960938 18.902344 123.980469 C 18.902344 123.980469 37.226562 130.078125 46.160156 133.742188 C 54.273438 137.113281 67.984375 146 67.984375 146 Z M 67.984375 146 " fill-opacity="1" fill-rule="evenodd"/><g clip-path="url(#a189649480)"><path fill="#589ce4" d="M 172.4375 126.09375 L 192.421875 151.496094 L 107.609375 175.6875 L 77.535156 158.730469 C 77.535156 158.730469 58.628906 147.992188 40.90625 140.699219 C 23.179688 133.40625 6.492188 126.074219 6.492188 126.074219 L 6.292969 121.789062 C 6.292969 121.789062 43.363281 136.953125 50.675781 140.699219 C 57.972656 144.445312 77.535156 156.378906 77.535156 156.378906 Z M 172.4375 126.09375 " fill-opacity="1" fill-rule="evenodd"/></g><path fill="#589ce4" d="M 70.28125 120.375 C 70.28125 120.375 66.605469 116.566406 60.75 116.589844 C 57.070312 116.609375 55.171875 117.265625 52.714844 119.4375 C 50.777344 121.152344 50.296875 124.878906 50.875 127.25 C 51.617188 130.21875 53.335938 131.550781 54.332031 132.6875 C 55.3125 133.824219 59.03125 135.578125 59.03125 135.578125 C 59.03125 135.578125 57.632812 134.164062 59.210938 133.34375 C 60.808594 132.527344 63.605469 132.570312 65.066406 133.304688 C 66.523438 134.042969 69.222656 135.558594 69.222656 135.558594 L 71.039062 134.003906 L 70.480469 129.578125 C 70.480469 129.578125 70.558594 123.941406 70.859375 123.503906 C 71.160156 123.125 70.320312 120.433594 70.28125 120.375 Z M 70.28125 120.375 " fill-opacity="1" fill-rule="evenodd"/><path fill="#58373a" d="M 103.535156 89.867188 C 103.535156 89.867188 103.972656 88.453125 105.613281 87.277344 C 107.25 86.101562 108.609375 86.242188 109.546875 83.351562 C 110.226562 81.300781 110.1875 79.566406 110.1875 79.566406 C 110.1875 79.566406 111.546875 79.90625 111.945312 77.453125 C 112.328125 75.003906 112.425781 69.226562 110.226562 66.515625 C 108.011719 63.785156 105.492188 60.160156 99.875 59.480469 C 94.261719 58.804688 90.484375 58.503906 87.828125 59.960938 C 85.167969 61.414062 82.390625 63.566406 81.890625 64.621094 C 81.390625 65.699219 80.992188 66.8125 80.992188 66.8125 C 80.992188 66.8125 79.894531 67.3125 79.253906 68.269531 C 78.613281 69.207031 78.214844 70.023438 78.175781 71.875 C 78.132812 73.550781 78.472656 74.925781 78.792969 75.859375 C 79.113281 76.796875 79.492188 78.074219 79.492188 78.074219 L 100.4375 89.132812 Z M 103.535156 89.867188 " fill-opacity="1" fill-rule="evenodd"/><path fill="#3ad2d7" d="M 118.0625 115.691406 C 118.0625 115.691406 118.160156 112.503906 117.742188 109.476562 C 117.320312 106.445312 115.625 100.828125 115.625 100.828125 C 115.625 100.828125 113.246094 95.128906 111.40625 93.574219 C 109.589844 92 106.890625 90.148438 105.511719 89.6875 C 104.113281 89.230469 104.332031 89.332031 101.734375 89.132812 C 99.136719 88.933594 86.488281 91.242188 85.386719 91.28125 C 84.289062 91.34375 83.109375 90.863281 83.109375 90.863281 C 83.109375 90.863281 81.792969 90.84375 83.789062 96.003906 C 85.808594 101.164062 89.164062 106.984375 90.644531 108.378906 C 92.121094 109.773438 97.140625 112.902344 97.140625 112.902344 L 96.519531 118.640625 C 96.519531 118.640625 93.640625 118.101562 89.046875 114.078125 C 84.429688 110.050781 83.691406 109.054688 82.191406 106.945312 C 80.691406 104.832031 80.113281 103.617188 80.113281 103.617188 C 80.113281 103.617188 78.753906 101.007812 78.335938 98.835938 C 77.914062 96.664062 77.792969 94.550781 77.792969 94.550781 C 77.792969 94.550781 72.738281 97.917969 71.300781 104.8125 C 69.859375 111.707031 70.199219 115.273438 70.261719 116.90625 C 70.320312 118.539062 70.261719 120.394531 70.261719 120.394531 C 70.261719 120.394531 69.722656 122.464844 69.382812 125.15625 C 69.042969 127.847656 68.742188 129.480469 69.023438 131.132812 C 69.300781 132.789062 69.519531 134.222656 69.519531 134.222656 C 69.519531 134.222656 68.941406 134.800781 68.640625 135.4375 C 68.34375 136.074219 68.003906 136.335938 68.101562 137.410156 C 68.203125 138.484375 68.640625 139.34375 68.640625 139.34375 C 68.640625 139.34375 69.921875 138.328125 72.359375 139.125 C 74.796875 139.902344 76.195312 141.316406 76.195312 141.316406 C 76.195312 141.316406 77.375 141.433594 77.792969 140.121094 C 78.214844 138.804688 77.792969 137.808594 77.792969 137.808594 C 77.792969 137.808594 80.171875 134.699219 80.613281 132.808594 C 81.050781 130.914062 81.03125 128.824219 81.03125 128.824219 L 86.628906 134.679688 L 92.523438 133.066406 C 92.523438 133.066406 92.542969 133.144531 92.523438 133.902344 C 92.503906 134.660156 92.203125 135.160156 92.203125 135.160156 C 92.203125 135.160156 91.523438 135.515625 91.144531 136.652344 C 90.902344 137.371094 90.863281 138.109375 90.984375 138.6875 C 91.082031 139.203125 91.644531 139.78125 91.644531 139.78125 C 91.644531 139.78125 93.839844 139.980469 96.160156 140.378906 C 97.457031 140.597656 100.054688 141.375 100.054688 141.375 C 100.054688 141.375 101.457031 141.496094 101.554688 140.082031 C 101.65625 138.664062 101.734375 137.789062 101.734375 137.789062 C 101.734375 137.789062 105.632812 135.558594 108.148438 131.8125 C 110.667969 128.085938 112.765625 123.742188 113.464844 121.929688 C 114.164062 120.113281 114.304688 118.519531 114.304688 118.519531 C 114.304688 118.519531 114.664062 116.789062 118.0625 115.691406 Z M 118.0625 115.691406 " fill-opacity="1" fill-rule="evenodd"/><path fill="#ffbe97" d="M 81.453125 69.5625 C 81.453125 69.5625 80.054688 71.238281 79.871094 72.773438 C 79.691406 74.285156 79.554688 76.5 79.492188 77.574219 C 79.433594 78.648438 78.773438 80.921875 78.914062 82.554688 C 79.054688 84.1875 79.433594 86.917969 80.351562 88.414062 C 81.273438 89.90625 82.132812 91.34375 83.667969 92.140625 C 85.109375 92.875 86.527344 93.035156 86.527344 93.035156 C 86.527344 93.035156 87.105469 95.386719 87.984375 96.644531 C 88.867188 97.898438 90.605469 99.492188 93.160156 98.574219 C 95.738281 97.640625 96.597656 97.261719 98.15625 94.890625 C 99.714844 92.519531 100.257812 91.144531 101.394531 90.304688 C 102.535156 89.488281 102.953125 89.210938 102.953125 89.210938 C 102.953125 89.210938 101.675781 87.058594 101.355469 86.121094 C 101.355469 86.121094 104.3125 86.320312 105.433594 83.910156 C 106.550781 81.5 106.351562 79.207031 105.03125 77.851562 C 103.714844 76.5 102.214844 76.898438 101.296875 77.515625 C 100.097656 78.3125 99.757812 79.488281 99.757812 79.488281 L 99.257812 77.195312 C 99.257812 77.195312 97.796875 77.554688 96.4375 76.019531 C 95.082031 74.503906 94.179688 72.433594 94.179688 72.433594 C 94.179688 72.433594 94.160156 73.789062 91.625 73.75 C 89.863281 73.707031 89.003906 72.890625 88.1875 71.957031 C 87.90625 71.636719 87.625 71.15625 87.625 71.15625 C 87.625 71.15625 87.585938 72.292969 87.1875 72.730469 C 86.628906 73.328125 85.746094 73.03125 85.25 72.414062 C 84.75 71.796875 84.570312 71.277344 84.570312 71.277344 C 84.570312 71.277344 84.589844 72.09375 84.148438 72.375 C 83.46875 72.773438 82.730469 72.574219 82.152344 71.296875 C 81.769531 70.558594 81.453125 69.5625 81.453125 69.5625 Z M 81.453125 69.5625 " fill-opacity="1" fill-rule="evenodd"/><path fill="#ffbe97" d="M 100.054688 141.355469 C 100.054688 141.355469 99.578125 143.765625 99.4375 144.382812 C 99.296875 145 100.175781 146.296875 100.136719 148.128906 C 100.097656 149.964844 99.917969 151.078125 99.917969 151.078125 C 99.917969 151.078125 101.355469 152.554688 101.234375 153.789062 C 101.117188 155.023438 101.375 156.21875 100.15625 156.238281 C 98.9375 156.28125 98.296875 155.859375 98.296875 155.859375 C 98.296875 155.859375 98.636719 156.9375 97.796875 157.234375 C 96.957031 157.535156 96.160156 157.457031 95.761719 157.214844 C 95.359375 156.976562 94.960938 156.558594 94.960938 156.558594 C 94.960938 156.558594 94.761719 157.457031 94.121094 157.59375 C 93.480469 157.734375 93.042969 157.632812 92.523438 157.296875 C 92.003906 156.976562 91.644531 156.539062 91.644531 156.539062 C 91.644531 156.539062 91.625 157.933594 91.023438 158.390625 C 90.425781 158.851562 90.023438 159.03125 89.484375 158.511719 C 88.925781 157.992188 88.527344 157.335938 88.367188 156.757812 C 88.207031 156.160156 87.964844 155.003906 87.964844 155.003906 C 87.964844 155.003906 87.445312 154.40625 87.027344 154.089844 C 86.605469 153.769531 85.929688 153.03125 85.867188 151.714844 C 85.808594 150.402344 85.707031 149.445312 87.1875 147.792969 C 88.664062 146.136719 90.164062 144.941406 90.164062 144.941406 C 90.164062 144.941406 90.84375 143.964844 91.144531 142.652344 C 91.445312 141.316406 91.683594 139.582031 91.703125 139.484375 C 91.722656 139.382812 93.839844 138.546875 93.839844 138.546875 C 93.839844 138.546875 101.773438 137.550781 100.054688 141.355469 Z M 100.054688 141.355469 " fill-opacity="1" fill-rule="evenodd"/><path fill="#ffbe97" d="M 76.253906 141.015625 L 75.695312 143.828125 C 75.695312 143.828125 76.796875 145.140625 77.296875 147.171875 C 77.792969 149.207031 78.09375 150.28125 77.296875 151.976562 C 76.496094 153.667969 75.875 154.328125 75.457031 155.125 C 75.035156 155.921875 75.117188 156.28125 74.597656 156.660156 C 74.058594 157.015625 73.257812 156.859375 72.980469 156.558594 C 72.980469 156.558594 72.457031 157.675781 71.558594 157.554688 C 70.660156 157.433594 70.140625 156.835938 70.140625 156.835938 C 70.140625 156.835938 69.742188 157.136719 69.203125 156.976562 C 68.640625 156.816406 68.542969 156.71875 68.261719 156.359375 C 67.984375 156 67.84375 155.742188 67.84375 155.742188 C 67.84375 155.742188 67.144531 155.960938 66.5625 155.621094 C 65.984375 155.261719 65.382812 154.6875 65.164062 153.949219 C 64.945312 153.210938 64.84375 152.472656 64.84375 152.472656 C 64.84375 152.472656 63.6875 151.917969 63.386719 151.257812 C 63.085938 150.601562 62.167969 148.589844 63.425781 146.636719 C 64.683594 144.703125 65.765625 143.648438 66.523438 143.148438 C 67.285156 142.628906 68.0625 142.171875 68.0625 142.171875 L 68.683594 139.34375 C 68.683594 139.34375 69.300781 138.109375 70.300781 137.867188 C 71.300781 137.648438 73.898438 137.949219 74.617188 138.425781 C 75.316406 138.90625 77.113281 138.886719 76.253906 141.015625 Z M 76.253906 141.015625 " fill-opacity="1" fill-rule="evenodd"/><path fill="#ffbe97" d="M 116.742188 104.832031 C 116.742188 104.832031 119.621094 105.089844 119.601562 101.824219 C 119.582031 98.574219 119.121094 97.101562 118.023438 95.109375 C 116.921875 93.117188 114.425781 91.003906 113.34375 90.445312 C 112.265625 89.90625 110.429688 88.871094 107.410156 89.089844 C 106.351562 89.171875 104.652344 89.929688 103.453125 91.78125 C 102.554688 93.15625 102.632812 94.429688 103.054688 95.027344 C 103.492188 95.625 104.253906 95.648438 104.253906 95.648438 C 104.253906 95.648438 104.132812 96.066406 104.292969 97.019531 C 104.394531 97.621094 104.671875 97.976562 105.613281 98.394531 C 106.449219 98.773438 107.128906 97.9375 107.128906 97.9375 C 107.128906 97.9375 107.171875 98.753906 107.429688 99.292969 C 107.691406 99.851562 108.070312 100.128906 108.550781 100.230469 C 109.148438 100.347656 110.109375 100.109375 110.109375 100.109375 C 110.109375 100.109375 110.027344 100.925781 110.429688 101.542969 C 111.105469 102.601562 112.144531 102.621094 112.945312 102.402344 C 113.40625 102.261719 114.066406 101.804688 114.605469 101.386719 C 115.125 100.964844 115.523438 100.609375 115.523438 100.609375 C 115.523438 100.609375 116.722656 104.433594 116.742188 104.832031 Z M 116.742188 104.832031 " fill-opacity="1" fill-rule="evenodd"/><path fill="#58373a" d="M 89.046875 75.222656 C 89.046875 75.222656 90.285156 75.125 90.902344 75.300781 C 91.582031 75.5 92.183594 75.980469 92.484375 76.378906 C 92.761719 76.777344 93.121094 77.335938 93.121094 77.335938 C 93.121094 77.335938 93.320312 76.257812 93.082031 75.800781 C 92.84375 75.34375 92.441406 74.765625 91.644531 74.425781 C 90.824219 74.085938 89.605469 74.007812 89.183594 74.128906 C 88.726562 74.265625 88.585938 75.203125 89.046875 75.222656 Z M 89.046875 75.222656 " fill-opacity="1" fill-rule="evenodd"/><path fill="#58373a" d="M 83.289062 74.902344 C 83.289062 74.902344 82.03125 74.804688 81.429688 74.984375 C 80.753906 75.183594 80.152344 75.660156 79.851562 76.058594 C 79.554688 76.457031 79.214844 77.015625 79.214844 77.015625 C 79.214844 77.015625 79.011719 75.941406 79.253906 75.480469 C 79.492188 75.023438 79.894531 74.445312 80.691406 74.105469 C 81.511719 73.769531 82.730469 73.6875 83.148438 73.808594 C 83.609375 73.949219 83.75 74.882812 83.289062 74.902344 Z M 83.289062 74.902344 " fill-opacity="1" fill-rule="evenodd"/><path fill="#58373a" d="M 90.203125 76.398438 C 89.726562 76.378906 89.304688 77.117188 89.246094 78.050781 C 89.183594 78.988281 89.523438 79.765625 90.003906 79.804688 C 90.484375 79.824219 90.902344 79.089844 90.964844 78.152344 C 91.023438 77.195312 90.683594 76.417969 90.203125 76.398438 Z M 90.203125 76.398438 " fill-opacity="1" fill-rule="evenodd"/><path fill="#58373a" d="M 82.230469 76.179688 C 81.75 76.160156 81.332031 76.898438 81.273438 77.832031 C 81.210938 78.769531 81.550781 79.546875 82.03125 79.585938 C 82.511719 79.605469 82.929688 78.871094 82.992188 77.933594 C 83.03125 76.996094 82.691406 76.21875 82.230469 76.179688 Z M 82.230469 76.179688 " fill-opacity="1" fill-rule="evenodd"/><path fill="#58373a" d="M 85.429688 87.816406 C 85.429688 87.816406 84.730469 86.761719 85.566406 86.339844 C 85.90625 86.183594 86.667969 86.183594 87.1875 85.785156 C 87.726562 85.386719 88.125 84.566406 88.785156 84.109375 C 89.386719 83.691406 90.484375 83.589844 90.921875 84.148438 C 91.363281 84.6875 91.402344 85.523438 90.964844 86.183594 C 90.542969 86.820312 89.765625 87.578125 89.105469 87.957031 C 88.445312 88.332031 86.367188 89.25 85.429688 87.816406 Z M 85.429688 87.816406 " fill-opacity="1" fill-rule="evenodd"/><path fill="#58373a" d="M 127.832031 44.320312 C 127.773438 44.277344 127.695312 44.296875 127.652344 44.359375 C 127.613281 44.417969 127.632812 44.496094 127.671875 44.539062 C 127.671875 44.539062 130.851562 46.828125 132.308594 49.976562 C 133.128906 51.75 133.648438 53.703125 133.769531 55.355469 C 133.886719 57.011719 133.449219 59.183594 133.148438 60.339844 C 133.128906 60.417969 133.167969 60.476562 133.25 60.496094 C 133.308594 60.519531 133.390625 60.476562 133.410156 60.398438 C 133.707031 59.222656 134.148438 57.011719 134.027344 55.335938 C 133.910156 53.664062 133.367188 51.691406 132.550781 49.878906 C 131.070312 46.648438 127.832031 44.320312 127.832031 44.320312 Z M 127.832031 44.320312 " fill-opacity="1" fill-rule="evenodd"/><path fill="#58373a" d="M 128.472656 64.066406 C 128.414062 64.105469 128.414062 64.203125 128.453125 64.242188 C 128.492188 64.304688 128.59375 64.304688 128.632812 64.265625 C 128.632812 64.265625 129.851562 63.1875 132.328125 63.566406 C 133.167969 63.6875 134.707031 64.164062 135.386719 66.175781 C 135.40625 66.238281 135.488281 66.277344 135.546875 66.257812 C 135.605469 66.238281 135.648438 66.15625 135.628906 66.097656 C 134.886719 63.945312 133.269531 63.445312 132.371094 63.308594 C 129.773438 62.910156 128.472656 64.066406 128.472656 64.066406 Z M 128.472656 64.066406 " fill-opacity="1" fill-rule="evenodd"/><path fill="#58373a" d="M 122.777344 73.351562 C 122.816406 73.289062 122.796875 73.210938 122.738281 73.171875 C 122.679688 73.128906 122.597656 73.152344 122.558594 73.210938 C 122.558594 73.210938 119.601562 78.273438 114.703125 79.289062 C 110.40625 80.183594 108.148438 78.550781 108.148438 78.550781 C 108.089844 78.511719 108.011719 78.511719 107.96875 78.570312 C 107.929688 78.628906 107.929688 78.710938 107.988281 78.75 C 107.988281 78.75 110.308594 80.464844 114.746094 79.546875 C 119.761719 78.492188 122.777344 73.351562 122.777344 73.351562 Z M 122.777344 73.351562 " fill-opacity="1" fill-rule="evenodd"/><path fill="#58373a" d="M 132.75 66.753906 C 132.808594 66.792969 132.890625 66.753906 132.929688 66.695312 C 132.96875 66.636719 132.929688 66.554688 132.871094 66.515625 C 132.871094 66.515625 131.210938 65.738281 129.511719 67.113281 C 128.09375 68.269531 127.773438 70.539062 127.773438 70.539062 C 127.753906 70.621094 127.8125 70.679688 127.894531 70.679688 C 127.972656 70.699219 128.035156 70.640625 128.035156 70.558594 C 128.035156 70.558594 128.332031 68.410156 129.691406 67.3125 C 131.230469 66.078125 132.75 66.753906 132.75 66.753906 Z M 132.75 66.753906 " fill-opacity="1" fill-rule="evenodd"/><path fill="#58373a" d="M 108.769531 58.347656 C 108.75 58.285156 108.667969 58.265625 108.609375 58.285156 C 108.550781 58.304688 108.53125 58.386719 108.550781 58.445312 C 108.769531 58.984375 108.949219 59.480469 109.007812 59.78125 C 109.167969 60.65625 109.1875 61.355469 108.929688 62.191406 C 108.789062 62.628906 108.507812 63.167969 108.230469 63.527344 C 108.050781 63.746094 107.808594 63.84375 107.570312 63.964844 C 107.289062 64.105469 107.050781 64.285156 106.890625 64.621094 C 106.710938 65 106.75 65.417969 106.929688 65.777344 C 107.089844 66.136719 107.371094 66.4375 107.671875 66.65625 C 107.871094 66.792969 108.148438 67.011719 108.53125 67.171875 C 108.589844 67.191406 108.648438 67.171875 108.6875 67.113281 C 108.710938 67.054688 108.6875 66.972656 108.628906 66.953125 C 108.269531 66.8125 108.011719 66.59375 107.808594 66.457031 C 107.550781 66.277344 107.289062 65.996094 107.152344 65.679688 C 107.011719 65.378906 106.96875 65.042969 107.109375 64.722656 C 107.25 64.441406 107.46875 64.304688 107.691406 64.164062 C 107.949219 64.023438 108.230469 63.90625 108.429688 63.667969 C 108.75 63.289062 109.050781 62.710938 109.1875 62.25 C 109.449219 61.355469 109.429688 60.636719 109.269531 59.722656 C 109.1875 59.402344 109.007812 58.882812 108.769531 58.347656 Z M 108.769531 58.347656 " fill-opacity="1" fill-rule="evenodd"/><path fill="#58373a" d="M 130.453125 83.035156 C 130.511719 82.992188 130.53125 82.914062 130.492188 82.855469 C 130.453125 82.792969 130.371094 82.773438 130.3125 82.816406 C 130.3125 82.816406 128.074219 84.347656 128.035156 88.574219 C 128.011719 90.527344 128.59375 92.300781 128.59375 92.300781 C 128.613281 92.359375 128.691406 92.398438 128.753906 92.378906 C 128.8125 92.359375 128.851562 92.277344 128.832031 92.21875 C 128.832031 92.21875 128.273438 90.503906 128.292969 88.574219 C 128.332031 84.507812 130.453125 83.035156 130.453125 83.035156 Z M 130.453125 83.035156 " fill-opacity="1" fill-rule="evenodd"/><path fill="#58373a" d="M 139.945312 97.019531 C 139.984375 97.082031 140.0625 97.101562 140.125 97.0625 C 140.183594 97.019531 140.203125 96.941406 140.164062 96.882812 C 140.164062 96.882812 139.085938 95.207031 137.566406 93.773438 C 136.546875 92.796875 135.308594 91.941406 134.089844 91.742188 C 131.050781 91.242188 128.652344 91.722656 126.632812 93.355469 C 124.894531 94.769531 123.378906 96.722656 123.015625 97.199219 C 122.777344 97 122.179688 96.5625 121.597656 96.363281 C 120.71875 96.066406 119.339844 96.085938 118.5 97.199219 C 118.460938 97.261719 118.460938 97.339844 118.519531 97.378906 C 118.582031 97.417969 118.660156 97.417969 118.699219 97.359375 C 119.460938 96.363281 120.71875 96.34375 121.5 96.601562 C 122.199219 96.84375 122.9375 97.480469 122.9375 97.480469 C 122.957031 97.5 122.996094 97.519531 123.039062 97.519531 C 123.078125 97.519531 123.097656 97.5 123.136719 97.460938 C 123.136719 97.460938 124.816406 95.148438 126.792969 93.554688 C 128.753906 91.960938 131.089844 91.523438 134.046875 92 C 135.226562 92.199219 136.40625 93.035156 137.386719 93.972656 C 138.882812 95.386719 139.945312 97.019531 139.945312 97.019531 Z M 139.945312 97.019531 " fill-opacity="1" fill-rule="evenodd"/><path fill="#58373a" d="M 136.765625 107.542969 C 136.828125 107.503906 136.847656 107.421875 136.804688 107.363281 C 136.765625 107.304688 136.6875 107.28125 136.625 107.324219 C 136.625 107.324219 131.371094 110.609375 127.113281 110.511719 C 123.117188 110.410156 120.878906 108.917969 120.878906 108.917969 C 120.839844 108.898438 120.800781 108.898438 120.738281 108.917969 C 119.699219 109.433594 118.960938 109.015625 118.5 108.480469 C 118.023438 107.921875 117.800781 107.222656 117.800781 107.222656 C 117.78125 107.164062 117.703125 107.125 117.640625 107.144531 C 117.582031 107.164062 117.542969 107.242188 117.5625 107.304688 C 117.5625 107.304688 117.78125 108.039062 118.320312 108.636719 C 118.839844 109.234375 119.660156 109.714844 120.820312 109.175781 C 121.21875 109.414062 123.4375 110.691406 127.132812 110.769531 C 131.429688 110.871094 136.765625 107.542969 136.765625 107.542969 Z M 136.765625 107.542969 " fill-opacity="1" fill-rule="evenodd"/><path fill="#58373a" d="M 77.59375 141.257812 C 77.535156 141.214844 77.453125 141.214844 77.414062 141.277344 C 77.375 141.335938 77.375 141.414062 77.433594 141.457031 C 77.433594 141.457031 80.113281 143.585938 81.652344 144.722656 C 83.171875 145.859375 85.886719 147.851562 85.886719 147.851562 C 85.949219 147.890625 86.027344 147.890625 86.066406 147.832031 C 86.109375 147.773438 86.109375 147.691406 86.046875 147.652344 C 86.046875 147.652344 83.351562 145.660156 81.8125 144.523438 C 80.273438 143.386719 77.59375 141.257812 77.59375 141.257812 Z M 77.59375 141.257812 " fill-opacity="1" fill-rule="evenodd"/><path fill="#58373a" d="M 125.296875 129.101562 C 125.375 129.0625 125.394531 128.960938 125.355469 128.882812 C 125.316406 128.800781 125.214844 128.78125 125.136719 128.824219 C 125.136719 128.824219 104.414062 140.300781 100.796875 142.609375 C 100.714844 142.652344 100.695312 142.75 100.753906 142.828125 C 100.796875 142.910156 100.894531 142.929688 100.976562 142.871094 C 104.59375 140.578125 125.296875 129.101562 125.296875 129.101562 Z M 125.296875 129.101562 " fill-opacity="1" fill-rule="evenodd"/><path fill="#58373a" d="M 67.363281 140.835938 C 67.441406 140.878906 67.523438 140.855469 67.582031 140.796875 C 67.621094 140.71875 67.601562 140.636719 67.542969 140.578125 C 67.542969 140.578125 56.390625 133.085938 49.4375 130.496094 C 49.359375 130.457031 49.257812 130.515625 49.238281 130.597656 C 49.199219 130.675781 49.257812 130.773438 49.339844 130.796875 C 56.253906 133.367188 67.363281 140.835938 67.363281 140.835938 Z M 67.363281 140.835938 " fill-opacity="1" fill-rule="evenodd"/><path fill="#58373a" d="M 79.234375 106.105469 C 79.234375 106.027344 79.195312 105.96875 79.113281 105.96875 C 79.035156 105.96875 78.972656 106.007812 78.972656 106.085938 C 78.972656 106.085938 78.414062 112.464844 78.894531 116.328125 C 79.351562 120.195312 80.910156 127.546875 80.910156 127.546875 C 80.933594 127.625 80.992188 127.667969 81.070312 127.648438 C 81.152344 127.625 81.191406 127.566406 81.171875 127.488281 C 81.171875 127.488281 79.613281 120.15625 79.152344 116.289062 C 78.675781 112.445312 79.234375 106.105469 79.234375 106.105469 Z M 79.234375 106.105469 " fill-opacity="1" fill-rule="evenodd"/><path fill="#58373a" d="M 97.160156 120.59375 C 97.117188 120.652344 97.140625 120.734375 97.199219 120.773438 C 97.257812 120.8125 97.339844 120.792969 97.378906 120.734375 C 97.378906 120.734375 98.136719 119.398438 99.15625 118.140625 C 99.816406 117.324219 100.574219 116.546875 101.296875 116.230469 C 103.59375 115.214844 105.652344 115.09375 107.628906 115.671875 C 107.691406 115.691406 107.769531 115.652344 107.789062 115.59375 C 107.808594 115.53125 107.769531 115.453125 107.710938 115.433594 C 105.671875 114.835938 103.554688 114.933594 101.195312 115.992188 C 100.457031 116.328125 99.65625 117.125 98.957031 117.984375 C 97.9375 119.238281 97.160156 120.59375 97.160156 120.59375 Z M 97.160156 120.59375 " fill-opacity="1" fill-rule="evenodd"/><path fill="#58373a" d="M 97.9375 108.398438 C 97.9375 108.320312 97.898438 108.257812 97.816406 108.257812 C 97.738281 108.238281 97.679688 108.300781 97.679688 108.378906 C 97.679688 108.378906 96.679688 115.472656 96.519531 116.988281 C 96.359375 118.5 96.339844 121.230469 96.339844 121.230469 C 96.339844 121.230469 96.339844 121.25 96.339844 121.25 C 96.339844 121.25 96.398438 121.789062 96.398438 121.789062 C 96.199219 122.109375 94.820312 124.320312 93.980469 126.472656 C 92.902344 129.179688 92.5625 132.289062 92.5625 132.289062 C 92.5625 132.371094 92.601562 132.429688 92.683594 132.429688 C 92.761719 132.429688 92.824219 132.390625 92.824219 132.308594 C 92.824219 132.308594 93.160156 129.242188 94.222656 126.570312 C 95.121094 124.257812 96.640625 121.886719 96.640625 121.886719 C 96.660156 121.867188 96.660156 121.828125 96.660156 121.808594 C 96.660156 121.808594 96.597656 121.230469 96.597656 121.230469 C 96.597656 121.070312 96.640625 118.480469 96.777344 117.007812 C 96.9375 115.472656 97.9375 108.398438 97.9375 108.398438 Z M 97.9375 108.398438 " fill-opacity="1" fill-rule="evenodd"/><path fill="#58373a" d="M 114.542969 103.4375 C 114.523438 103.359375 114.464844 103.316406 114.382812 103.335938 C 114.304688 103.359375 114.265625 103.417969 114.285156 103.496094 C 114.285156 103.496094 115.003906 107.503906 115.105469 111.488281 C 115.183594 114.277344 114.34375 117.445312 114.34375 117.445312 C 114.324219 117.523438 114.363281 117.585938 114.445312 117.605469 C 114.503906 117.625 114.585938 117.585938 114.605469 117.503906 C 114.605469 117.503906 115.445312 114.296875 115.363281 111.46875 C 115.265625 107.460938 114.542969 103.4375 114.542969 103.4375 Z M 114.542969 103.4375 " fill-opacity="1" fill-rule="evenodd"/><path fill="#58373a" d="M 97.777344 87.757812 C 97.816406 87.695312 97.796875 87.617188 97.738281 87.578125 C 97.679688 87.535156 97.597656 87.558594 97.558594 87.617188 C 97.558594 87.617188 95.859375 90.1875 92.484375 91.621094 C 89.105469 93.054688 87.265625 92.898438 87.265625 92.898438 C 87.1875 92.898438 87.125 92.9375 87.125 93.015625 C 87.125 93.097656 87.167969 93.15625 87.246094 93.15625 C 87.246094 93.15625 89.144531 93.335938 92.601562 91.859375 C 96.039062 90.386719 97.777344 87.757812 97.777344 87.757812 Z M 97.777344 87.757812 " fill-opacity="1" fill-rule="evenodd"/><path fill="#58373a" d="M 104.171875 79.148438 C 104.253906 79.148438 104.3125 79.089844 104.3125 79.027344 C 104.3125 78.949219 104.253906 78.890625 104.191406 78.890625 C 104.191406 78.890625 102.652344 78.789062 101.816406 80.703125 C 101.375 81.71875 101.335938 83.75 101.335938 83.75 C 101.335938 83.832031 101.394531 83.890625 101.457031 83.890625 C 101.535156 83.890625 101.59375 83.832031 101.59375 83.75 C 101.59375 83.75 101.613281 81.777344 102.054688 80.800781 C 102.8125 79.089844 104.171875 79.148438 104.171875 79.148438 Z M 104.171875 79.148438 " fill-opacity="1" fill-rule="evenodd"/><path fill="#58373a" d="M 116.125 100.070312 C 116.101562 100.011719 116.042969 99.949219 115.964844 99.96875 C 115.882812 99.992188 115.84375 100.050781 115.863281 100.128906 C 115.863281 100.128906 115.902344 100.410156 116.382812 100.628906 C 116.824219 100.828125 117.164062 100.789062 117.164062 100.789062 C 117.242188 100.789062 117.28125 100.707031 117.28125 100.648438 C 117.28125 100.566406 117.203125 100.527344 117.140625 100.527344 C 117.140625 100.527344 116.863281 100.546875 116.503906 100.390625 C 116.203125 100.269531 116.125 100.070312 116.125 100.070312 Z M 116.125 100.070312 " fill-opacity="1" fill-rule="evenodd"/><path fill="#58373a" d="M 117.28125 98.355469 C 117.320312 98.296875 117.28125 98.21875 117.222656 98.175781 C 117.164062 98.15625 117.082031 98.175781 117.042969 98.238281 C 117.042969 98.238281 116.582031 99.273438 115.761719 100.148438 C 115.464844 100.46875 114.585938 101.304688 113.863281 101.761719 C 113.804688 101.804688 113.785156 101.882812 113.824219 101.941406 C 113.863281 102.003906 113.945312 102.023438 114.003906 101.984375 C 114.746094 101.523438 115.644531 100.648438 115.941406 100.328125 C 116.800781 99.453125 117.28125 98.355469 117.28125 98.355469 Z M 117.28125 98.355469 " fill-opacity="1" fill-rule="evenodd"/><path fill="#58373a" d="M 116.363281 95.148438 C 116.421875 95.1875 116.503906 95.1875 116.542969 95.128906 C 116.582031 95.070312 116.582031 94.988281 116.523438 94.949219 C 116.523438 94.949219 115.882812 94.449219 114.84375 94.53125 C 114.164062 94.570312 113.304688 94.871094 112.347656 95.726562 C 111.066406 96.84375 110.449219 98.816406 110.449219 98.816406 C 110.429688 98.875 110.46875 98.953125 110.527344 98.972656 C 110.585938 98.992188 110.667969 98.953125 110.6875 98.894531 C 110.6875 98.894531 111.289062 97 112.527344 95.925781 C 113.425781 95.128906 114.226562 94.847656 114.863281 94.808594 C 115.785156 94.710938 116.363281 95.148438 116.363281 95.148438 Z M 116.363281 95.148438 " fill-opacity="1" fill-rule="evenodd"/><path fill="#58373a" d="M 113.785156 92.078125 C 113.84375 92.101562 113.925781 92.058594 113.945312 92 C 113.964844 91.941406 113.925781 91.859375 113.863281 91.839844 C 113.863281 91.839844 111.808594 91.164062 109.410156 93.277344 C 108.128906 94.390625 107.511719 96.363281 107.511719 96.363281 C 107.492188 96.421875 107.53125 96.503906 107.589844 96.523438 C 107.648438 96.542969 107.730469 96.503906 107.75 96.445312 C 107.75 96.445312 108.347656 94.550781 109.589844 93.476562 C 111.847656 91.460938 113.785156 92.078125 113.785156 92.078125 Z M 113.785156 92.078125 " fill-opacity="1" fill-rule="evenodd"/><path fill="#58373a" d="M 110.507812 90.464844 C 110.566406 90.503906 110.648438 90.464844 110.6875 90.40625 C 110.726562 90.347656 110.6875 90.265625 110.628906 90.226562 C 110.628906 90.226562 108.507812 89.210938 106.449219 91.304688 C 105.253906 92.5 104.574219 94.589844 104.574219 94.589844 C 104.550781 94.648438 104.59375 94.730469 104.652344 94.75 C 104.710938 94.769531 104.792969 94.730469 104.8125 94.671875 C 104.8125 94.671875 105.472656 92.65625 106.632812 91.480469 C 108.550781 89.550781 110.507812 90.464844 110.507812 90.464844 Z M 110.507812 90.464844 " fill-opacity="1" fill-rule="evenodd"/><path fill="#58373a" d="M 83.53125 75.820312 C 83.488281 75.761719 83.429688 75.742188 83.371094 75.78125 C 83.308594 75.820312 83.289062 75.878906 83.328125 75.941406 C 83.589844 76.398438 83.808594 76.816406 83.890625 77.097656 C 84.128906 77.871094 84.210938 78.492188 84.070312 79.269531 C 83.988281 79.667969 83.808594 80.203125 83.570312 80.542969 C 83.429688 80.742188 83.210938 80.863281 83.011719 81.019531 C 82.789062 81.179688 82.570312 81.359375 82.449219 81.699219 C 82.332031 82.058594 82.410156 82.4375 82.609375 82.753906 C 82.789062 83.054688 83.089844 83.3125 83.371094 83.472656 C 83.570312 83.570312 83.828125 83.75 84.210938 83.851562 C 84.269531 83.871094 84.328125 83.832031 84.347656 83.769531 C 84.371094 83.710938 84.328125 83.652344 84.269531 83.632812 C 83.929688 83.53125 83.667969 83.371094 83.488281 83.273438 C 83.230469 83.132812 82.992188 82.914062 82.832031 82.65625 C 82.671875 82.394531 82.589844 82.097656 82.691406 81.796875 C 82.789062 81.539062 82.96875 81.378906 83.148438 81.242188 C 83.371094 81.082031 83.609375 80.941406 83.769531 80.703125 C 84.007812 80.34375 84.230469 79.765625 84.308594 79.347656 C 84.449219 78.511719 84.371094 77.871094 84.128906 77.054688 C 84.007812 76.738281 83.789062 76.300781 83.53125 75.820312 Z M 83.53125 75.820312 " fill-opacity="1" fill-rule="evenodd"/><g clip-path="url(#ea05c615f7)"><g clip-path="url(#92b004bb10)"><g clip-path="url(#72014b2bbe)"><path fill="#fc9e97" d="M 48.824219 42.65625 C 48.023438 43.058594 47.285156 43.402344 46.570312 43.789062 C 45.085938 44.589844 43.613281 45.410156 42.136719 46.222656 C 41.820312 46.394531 41.5 46.570312 41.179688 46.734375 C 40.671875 46.996094 40.203125 46.871094 39.796875 46.523438 C 39.382812 46.175781 39.285156 45.675781 39.457031 45.210938 C 39.9375 43.910156 40.472656 42.625 41.011719 41.34375 C 41.527344 40.117188 42.078125 38.910156 42.609375 37.691406 C 42.640625 37.621094 42.640625 37.53125 42.6875 37.476562 C 43.230469 36.808594 42.882812 36.300781 42.464844 35.71875 C 41.191406 33.929688 39.945312 32.121094 38.738281 30.285156 C 38.320312 29.652344 38.039062 28.929688 37.703125 28.242188 C 37.445312 27.710938 37.53125 27.1875 37.875 26.734375 C 38.261719 26.222656 38.808594 26.167969 39.375 26.390625 C 40.472656 26.824219 41.5625 27.277344 42.660156 27.71875 C 44.671875 28.53125 46.683594 29.351562 48.707031 30.140625 C 48.855469 30.199219 49.152344 30.121094 49.269531 30 C 51.207031 28.007812 53.128906 26.003906 55.046875 23.992188 C 55.691406 23.316406 56.3125 22.621094 56.945312 21.9375 C 57.445312 21.394531 57.929688 21.246094 58.476562 21.464844 C 59.078125 21.703125 59.234375 22.21875 59.164062 22.78125 C 58.917969 24.75 58.640625 26.71875 58.359375 28.6875 C 58.226562 29.613281 58.074219 30.535156 57.90625 31.453125 C 57.84375 31.78125 57.980469 31.890625 58.261719 31.976562 C 59.246094 32.273438 60.238281 32.554688 61.207031 32.898438 C 62.875 33.484375 64.53125 34.105469 66.1875 34.726562 C 66.859375 34.976562 67.519531 35.265625 68.191406 35.519531 C 68.878906 35.78125 69.148438 36.351562 69.167969 37.003906 C 69.183594 37.648438 68.75 38.074219 68.160156 38.253906 C 67.300781 38.519531 66.429688 38.742188 65.558594 38.941406 C 63.191406 39.476562 60.8125 39.976562 58.449219 40.535156 C 58.195312 40.59375 57.890625 40.910156 57.8125 41.171875 C 56.964844 44.015625 56.15625 46.871094 55.335938 49.722656 C 55.085938 50.585938 54.871094 51.457031 54.574219 52.304688 C 54.40625 52.789062 54.011719 53.109375 53.460938 53.152344 C 52.90625 53.199219 52.441406 53.082031 52.230469 52.476562 C 51.183594 49.527344 50.128906 46.582031 49.085938 43.632812 C 48.988281 43.367188 48.9375 43.085938 48.824219 42.65625 Z M 69.457031 28.207031 C 68.945312 28.195312 68.589844 28.5 68.679688 28.996094 C 68.738281 29.335938 68.945312 29.71875 69.207031 29.941406 C 70.023438 30.628906 70.910156 31.230469 71.746094 31.898438 C 72.996094 32.898438 74.230469 33.917969 75.457031 34.945312 C 75.589844 35.054688 75.71875 35.292969 75.695312 35.449219 C 75.550781 36.449219 75.375 37.445312 75.183594 38.441406 C 74.910156 39.847656 74.605469 41.25 74.335938 42.65625 C 74.242188 43.160156 74.296875 43.648438 74.75 44.007812 C 75.535156 44.628906 76.351562 44.476562 77.003906 43.589844 C 78.113281 42.078125 79.234375 40.578125 80.332031 39.058594 C 80.578125 38.71875 80.796875 38.660156 81.128906 38.925781 C 81.878906 39.519531 82.644531 40.089844 83.394531 40.679688 C 83.785156 40.984375 84.152344 41.316406 84.535156 41.632812 C 85.617188 42.53125 86.707031 43.425781 87.785156 44.335938 C 88.191406 44.679688 88.621094 44.640625 89.003906 44.382812 C 89.402344 44.113281 89.757812 43.746094 89.578125 43.1875 C 89.320312 42.390625 89.070312 41.585938 88.753906 40.8125 C 87.925781 38.804688 87.101562 36.789062 86.183594 34.824219 C 85.902344 34.222656 86.035156 33.894531 86.410156 33.476562 C 87.316406 32.476562 88.199219 31.453125 89.089844 30.441406 C 89.769531 29.667969 90.460938 28.910156 91.113281 28.113281 C 91.542969 27.589844 91.996094 27.054688 92.285156 26.449219 C 92.671875 25.640625 92.054688 24.9375 91.179688 25.125 C 90.542969 25.257812 89.921875 25.449219 89.300781 25.632812 C 87.324219 26.210938 85.355469 26.804688 83.375 27.363281 C 83.179688 27.417969 82.875 27.359375 82.71875 27.230469 C 82.3125 26.890625 81.949219 26.496094 81.589844 26.101562 C 80.523438 24.9375 79.46875 23.757812 78.40625 22.589844 C 77.816406 21.941406 77.066406 21.839844 76.550781 22.328125 C 76.109375 22.738281 76.175781 23.269531 76.25 23.777344 C 76.441406 25.125 76.65625 26.464844 76.855469 27.808594 C 76.882812 28.011719 76.863281 28.21875 76.867188 28.40625 C 74.339844 28.339844 71.898438 28.269531 69.457031 28.207031 Z M 78.675781 50.65625 C 78.441406 50.605469 78.179688 50.648438 77.9375 50.691406 C 75.996094 51.046875 74.058594 51.40625 72.121094 51.78125 C 71.800781 51.84375 71.605469 51.8125 71.4375 51.480469 C 70.859375 50.3125 70.25 49.160156 69.636719 48.011719 C 69.289062 47.355469 68.941406 46.6875 68.53125 46.070312 C 68.160156 45.507812 67.449219 45.441406 67 45.925781 C 66.804688 46.136719 66.683594 46.503906 66.6875 46.796875 C 66.710938 48.527344 66.765625 50.261719 66.855469 51.996094 C 66.886719 52.582031 66.722656 52.835938 66.109375 52.914062 C 65.238281 53.023438 64.375 53.222656 63.523438 53.4375 C 62.996094 53.570312 62.417969 53.714844 62.175781 54.300781 C 61.859375 55.066406 62.285156 55.839844 63.152344 56.140625 C 64.035156 56.449219 64.902344 56.808594 65.796875 57.078125 C 66.308594 57.234375 66.375 57.492188 66.296875 57.964844 C 66.089844 59.265625 65.894531 60.574219 65.765625 61.882812 C 65.734375 62.21875 65.863281 62.757812 66.09375 62.886719 C 66.398438 63.058594 66.9375 63.039062 67.265625 62.875 C 67.722656 62.648438 68.132812 62.261719 68.464844 61.863281 C 69.128906 61.074219 69.71875 60.222656 70.363281 59.421875 C 70.453125 59.3125 70.75 59.234375 70.859375 59.300781 C 72.003906 59.980469 73.144531 60.679688 74.265625 61.40625 C 75.007812 61.886719 75.65625 61.976562 76.109375 61.59375 C 76.585938 61.195312 76.628906 60.582031 76.238281 59.746094 C 76.199219 59.65625 76.144531 59.578125 76.097656 59.492188 C 75.589844 58.617188 75.09375 57.730469 74.574219 56.863281 C 74.371094 56.527344 74.433594 56.3125 74.738281 56.089844 C 75.371094 55.628906 76 55.164062 76.609375 54.671875 C 77.566406 53.890625 78.503906 53.085938 79.449219 52.289062 C 80.125 51.371094 79.660156 50.875 78.675781 50.65625 Z M 78.675781 50.65625 " fill-opacity="1" fill-rule="nonzero"/></g></g></g></svg>